/* XPM */
static char * imageswall_gg_xpm[] = {
"64 64 199 2",
"  	c #F0EDEC",
". 	c #DB9977",
"+ 	c #FFA368",
"@ 	c #F1BA87",
"# 	c #726752",
"$ 	c #332416",
"% 	c #736965",
"& 	c #D79471",
"* 	c #FFA468",
"= 	c #FFC99D",
"- 	c #FFFCF5",
"; 	c #8C6F66",
"> 	c #AF6941",
", 	c #D18150",
"' 	c #D18151",
") 	c #E29F6E",
"! 	c #E0A579",
"~ 	c #44311E",
"{ 	c #443322",
"] 	c #806258",
"^ 	c #AC6840",
"/ 	c #D18251",
"( 	c #E19E6D",
"_ 	c #F3BE97",
": 	c #6C4333",
"< 	c #8C4E2D",
"[ 	c #A35C37",
"} 	c #A45C37",
"| 	c #C97245",
"1 	c #E2824F",
"2 	c #3C2B1B",
"3 	c #3A2A1A",
"4 	c #61331D",
"5 	c #8A4C2D",
"6 	c #A45D37",
"7 	c #C77144",
"8 	c #E98B5C",
"9 	c #362516",
"0 	c #322416",
"a 	c #894C2D",
"b 	c #E98C5C",
"c 	c #E98C5D",
"d 	c #EA8C5D",
"e 	c #8A4D2D",
"f 	c #8B4D2D",
"g 	c #A35C36",
"h 	c #894C2C",
"i 	c #67493E",
"j 	c #754025",
"k 	c #864B2C",
"l 	c #A35B36",
"m 	c #B1653C",
"n 	c #342416",
"o 	c #552E1A",
"p 	c #743F24",
"q 	c #9F5935",
"r 	c #BA7454",
"s 	c #4C423B",
"t 	c #5C3F34",
"u 	c #5A311B",
"v 	c #63361F",
"w 	c #3F2918",
"x 	c #522D19",
"y 	c #5B311C",
"z 	c #684436",
"A 	c #50433C",
"B 	c #30261E",
"C 	c #2F2114",
"D 	c #39291A",
"E 	c #483829",
"F 	c #362A22",
"G 	c #352415",
"H 	c #382617",
"I 	c #362617",
"J 	c #352517",
"K 	c #3D2B1A",
"L 	c #4A392A",
"M 	c #736964",
"N 	c #D69370",
"O 	c #F99F65",
"P 	c #ECB481",
"Q 	c #6B5F47",
"R 	c #422919",
"S 	c #C67C4E",
"T 	c #F9A066",
"U 	c #F9A166",
"V 	c #E8B582",
"W 	c #615841",
"X 	c #462C1A",
"Y 	c #CB8050",
"Z 	c #EDB481",
"` 	c #726651",
" .	c #87695F",
"..	c #B06A41",
"+.	c #D28251",
"@.	c #DDA476",
"#.	c #3C2717",
"$.	c #6B3B22",
"%.	c #D28352",
"&.	c #E3A372",
"*.	c #DBA374",
"=.	c #2E2114",
"-.	c #6E3C23",
";.	c #AF6A41",
">.	c #E2A16F",
",.	c #E4AA7E",
"'.	c #C87244",
").	c #E0804E",
"!.	c #402918",
"~.	c #312416",
"{.	c #874B2C",
"].	c #CA7345",
"^.	c #E2814F",
"/.	c #2B2014",
"(.	c #352416",
"_.	c #60331C",
":.	c #C67144",
"<.	c #8A4C2C",
"[.	c #2C2014",
"}.	c #A25C36",
"|.	c #C97345",
"1.	c #A25B36",
"2.	c #7B645E",
"3.	c #884B2C",
"4.	c #B4663D",
"5.	c #3A2717",
"6.	c #562E1A",
"7.	c #A45C36",
"8.	c #B3663D",
"9.	c #2F2215",
"0.	c #572E1A",
"a.	c #744025",
"b.	c #C6866D",
"c.	c #6E6764",
"d.	c #725D57",
"e.	c #5B321C",
"f.	c #3E2818",
"g.	c #512D19",
"h.	c #60341D",
"i.	c #372516",
"j.	c #542E1A",
"k.	c #7B5F57",
"l.	c #716864",
"m.	c #322821",
"n.	c #493A2B",
"o.	c #33271F",
"p.	c #332315",
"q.	c #352617",
"r.	c #342516",
"s.	c #362517",
"t.	c #3C2A1A",
"u.	c #493929",
"v.	c #54443C",
"w.	c #CB845A",
"x.	c #F49D64",
"y.	c #F49E65",
"z.	c #E7B27F",
"A.	c #61553F",
"B.	c #412A19",
"C.	c #C67D4E",
"D.	c #F49E64",
"E.	c #F49F65",
"F.	c #EAB381",
"G.	c #785141",
"H.	c #B36D43",
"I.	c #D58453",
"J.	c #D58553",
"K.	c #D58653",
"L.	c #E5A271",
"M.	c #DDA576",
"N.	c #6D3C22",
"O.	c #B06B42",
"P.	c #E3A371",
"Q.	c #E5AE81",
"R.	c #C87245",
"S.	c #E1814E",
"T.	c #60331D",
"U.	c #C57044",
"V.	c #C57043",
"W.	c #322214",
"X.	c #C47043",
"Y.	c #816B65",
"Z.	c #774126",
"`.	c #894D2D",
" +	c #A75E38",
".+	c #C48166",
"++	c #2B1E16",
"@+	c #251C15",
"#+	c #745D57",
"$+	c #CE8D73",
"%+	c #EEECEC",
"&+	c #7C6861",
"*+	c #623A27",
"=+	c #7F635B",
"-+	c #726865",
";+	c #6E6865",
">+	c #76615A",
",+	c #826962",
"'+	c #EFEDEC",
"  . + + + + + + + + + + + + + + + + + + + + + + + + + + + @ # $ $ % & + + + + + + + + + * * * * * * * * * * * * * * * * * * = - ",
"; > , ' ' ' ' , ' , , , , , , ' , ' ' ' ' , ' ' ' ' ' ' , ) ! ~ { ] ^ ' ' ' ' ' ' ' ' ' ' ' ' ' ' ' ' ' ' ' / / / / / / / / ( _ ",
": < [ [ [ [ [ [ [ [ } } [ } } } } } } } } } } } } } } } } | 1 2 3 4 5 } } } } } } } } } } 6 6 } 6 6 6 6 6 6 6 6 6 6 6 6 6 6 7 8 ",
": < [ [ [ [ [ [ [ [ [ [ } [ } [ } } } } } } } } } } } } } | 1 9 0 4 a } } } } } } } } } } } } 6 } 6 } } 6 6 6 6 6 6 6 6 6 6 7 b ",
": < [ [ [ [ [ [ [ [ [ [ [ [ [ } [ } } } } } } } } } } } } | 1 9 0 4 5 } } } } } } } } } } } } } } } 6 } 6 } } 6 } 6 6 6 6 6 7 c ",
": < [ [ [ [ [ [ [ [ [ [ [ [ [ [ [ [ [ } [ } [ } } } } } } | 1 9 0 4 a } } } } } } } } } } } } } } } } } } } 6 } 6 } 6 6 6 6 7 c ",
": < [ [ [ [ [ [ [ [ [ [ [ [ [ [ [ [ [ [ [ [ } [ } } } } } | 1 9 $ 4 a } } } } } } } } } } } } } } } } } } } } } } } } 6 6 6 7 d ",
": < [ [ [ [ [ [ [ [ [ [ [ [ [ [ [ [ [ [ [ [ [ } [ } } } } | 1 9 0 4 a } } } } } } } } } } } } } } } } } } } } } } } } } } } 7 c ",
": e [ [ [ [ [ [ [ [ [ [ [ [ [ [ [ [ [ [ [ [ [ [ [ [ } [ } | 1 9 0 4 5 } } } } } } } } } } } } } } } } } } } } } } } } } } } 7 d ",
": f [ [ [ [ [ [ [ [ [ [ [ [ [ [ [ [ [ [ [ [ [ [ [ [ [ [ [ | 1 9 $ 4 a } } } } } } } } } } } } } } } } } } } } } } } } } } } 7 d ",
": e [ [ [ [ [ [ [ [ [ [ [ [ [ [ [ [ [ [ [ [ [ [ [ [ [ [ } | 1 9 0 4 a } } } } } } } } } } } } } } } } } } } } } } } } } } } 7 d ",
": 5 [ [ [ [ [ g [ [ [ [ [ [ [ [ [ [ [ [ [ [ [ [ [ [ [ [ [ | 1 9 $ 4 a [ } } } } } } } } } } } } } } } } } } } } } } } } } } 7 d ",
": h [ g [ [ [ [ [ [ [ [ [ [ [ [ [ [ [ [ [ [ [ [ [ [ [ [ [ | 1 9 0 4 a [ [ [ [ [ [ } } } } } } } } } } } } } } } } } } } } } 7 c ",
": h g [ [ g [ [ [ g [ [ [ [ [ [ [ [ [ [ [ [ [ [ [ [ [ [ [ | 1 9 $ 4 a [ [ [ [ [ [ [ [ } } } } } } } } } } } } } } } } } } } 7 b ",
": 5 g g g g g g g g g [ [ [ [ g [ g [ [ [ [ [ [ [ [ [ [ [ | 1 9 $ 4 a [ [ [ [ [ [ [ [ [ [ [ } } } } } } } } } } } } } } } } 7 b ",
": h g g g g g g g g g g g [ [ g [ [ g [ g [ [ [ [ [ [ [ [ | 1 9 $ 4 a [ [ [ [ [ [ [ [ [ [ [ [ } [ } } } } } } } } } } } } } 7 8 ",
": 5 g g g g g g g g g g g [ g g g g g g g [ [ [ [ [ [ [ [ | 1 9 $ 4 a [ [ [ [ [ [ [ [ [ [ [ [ [ [ [ [ [ } } [ } } } } } } } 7 8 ",
": h g g g g g g g g g g g g [ g [ g g [ g [ g [ [ [ [ [ [ | 1 9 $ 4 a [ [ [ [ [ [ [ [ [ [ [ [ [ [ [ [ [ [ [ } [ } [ } } } } 7 8 ",
"i j k k k k k k k k k k k k k k k k k k k k k k k k k k k l m n $ o p k k k k k k k k k k k k k k k k k k k k k k k k k k k q r ",
"s t u u u u u u u u u u u u u u u u u u u u u u u u u u u v w 0 $ 9 x u u u u u u u u u u u u u u u u u u u u u u u u u u y z A ",
"$ B C $ 0 0 0 0 $ $ 0 0 0 0 0 0 0 0 0 0 0 0 0 0 0 0 0 0 0 0 $ $ $ $ 0 0 0 0 0 0 0 0 0 0 0 0 0 0 0 0 0 0 0 0 0 0 0 0 0 0 0 D E $ ",
"$ F G H H H H H H H H H H I $ $ $ $ J H H H H H H H H H H H H H H H H H H H H H H H H H H J 0 0 0 0 J H H H H H H H H H H K L $ ",
"M N O O O O O O O O O O O P Q $ 0 R S O T T T T T T T T T T T T T T T T T T O O T T U T T V W 0 0 X Y U U U U U U T T T T T Z ` ",
" ...+.+.+.+.+.+.+.+.+.+.+.) @.#.0 $.^ +.+.+.%.%.%.%.%.%.%.%.%.%.%.%.%.%.%.%.%.%.%.%.%.%.%.&.*.=.n -.;.%.%.%.%.%.%.%.%.%.%.%.>.,.",
": h g g g g g g g g g g g '.).!.~.4 {.g g g g g g g g g g g g g g g g [ g g g g [ g [ g [ ].^./.(._.5 [ [ [ [ [ [ [ [ [ [ [ 7 8 ",
": h g g g g g g g g g g g '.).!.0 4 {.g g g g g g g g g g g g g g g g g g g g g g g g g g ].^./.n _.5 g [ [ [ [ g [ [ [ [ [ :.8 ",
": h g g g g g g g g g g g '.).!.0 4 {.g g g g g g g g g g g g g g g g g g g g g g g g g g ].^./.(._.5 g g g [ g [ g [ g [ [ :.8 ",
": h g g g g g g g g g g g '.).!.0 4 {.g g g g g g g g g g g g g g g g g g g g g g g g g g ].^./.n _.<.g g g [ g g [ g [ [ g :.8 ",
": h g g g g g g g g g g g '.).w 0 4 {.g g g g g g g g g g g g g g g g g g g g g g g g g g ].^.[.n _.5 g g g g g g g [ g g g :.8 ",
": a }.g g g g g g g g g g '.).!.~.4 {.g g g g g g g g g g g g g g g g g g g g g g g g g g ].^./.n _.<.g g g g g g g g g g g :.8 ",
": a }.}.g }.g }.g g g g g '.).!.~.4 {.g g g g g g g g g g g g g g g g g g g g g g g g g g |.^.[.(._.<.g g g g g g g g g g g :.8 ",
": h }.}.}.g }.g }.g g g g '.).w ~.4 {.g g g g g g g g g g g g g g g g g g g g g g g g g g |.^./.n _.5 g g g g g g g g g g g :.8 ",
": e }.}.}.}.}.}.g }.g }.g '.).!.~.4 {.g g g g g g g g g g g g g g g g g g g g g g g g g g |.^.[.(._.5 g g g g g g g g g g g :.8 ",
": e }.}.}.}.}.}.}.}.}.}.g '.).w ~.4 {.g g g g g g g g g g g g g g g g g g g g g g g g g g |.^.[.n _.5 g g g g g g g g g g g :.8 ",
": e }.}.}.}.}.}.}.}.}.}.}.'.).w ~.4 {.g g g g g g g g g g g g g g g g g g g g g g g g g g |.^.[.n _.<.g g g g g g g g g g g :.8 ",
": e }.}.}.}.}.}.}.}.}.}.}.'.).w ~.4 {.g }.g g g g g g g g g g g g g g g g g g g g g g g g |.^./.(._.5 g g g g g g g g g g g :.8 ",
": e }.}.}.}.}.}.}.}.}.}.}.'.).w ~.4 {.g }.g g g g g g g g g g g g g g g g g g g g g g g g |.^./.(._.<.g g g g g g g g g g g :.8 ",
": f }.}.}.}.}.}.}.}.}.}.}.'.).w ~.4 {.}.}.}.g }.}.g g g g g g g g g g g g g g g g g g g g |.^./.(._.5 g g g g g g g g g g g :.8 ",
": e }.}.}.}.}.}.}.}.}.}.}.'.).w ~.4 {.}.}.}.}.}.}.}.g }.g g g g g g g g g g g g g g g g g |.^./.(._.<.g g g g g g g g g g g :.8 ",
": e 1.}.}.}.}.}.}.}.}.}.}.'.).w ~.4 {.}.}.}.}.}.}.}.}.}.}.g }.g g g g g g g g g g g g g g |.^./.(._.<.g g g g g g g g g g g :.8 ",
"2.j 3.3.3.3.3.3.3.3.3.3.3.l 4.5.~.6.p 3.3.3.3.3.3.3.3.3.3.3.3.3.3.3.3.3.3.3.3.3.3.3.3.3.3.7.8.9.$ 0.a.3.3.3.3.3.3.3.3.3.3.3.1.b.",
"c.d.y e.e.e.e.e.e.e.e.e.e.v f.0 0 (.g.e.e.e.e.e.e.e.e.e.e.e.e.e.e.e.e.e.e.e.e.e.e.e.e.e.e.h.#.0 $ i.j.e.e.e.e.e.e.e.e.e.e.e.k.l.",
"$ m.C 0 0 0 0 0 0 0 0 0 0 0 0 0 0 0 0 0 0 0 0 0 0 0 0 0 0 0 0 0 0 0 0 0 0 0 0 0 0 0 0 0 0 0 $ 0 0 0 0 0 0 0 0 0 0 0 $ 0 $ D n.$ ",
"$ o.p.I I I I I I I I I I I I I I I I I I I I I I I I I I q.0 0 0 0 r.s.s.I s.s.s.I s.s.s.s.s.s.s.s.s.s.s.s.s.s.s.s.s.s.s.t.u.$ ",
"v.w.x.x.x.x.x.x.x.x.x.x.x.x.x.x.x.x.x.y.y.y.y.y.y.y.y.y.y.z.A.0 0 B.C.D.x.x.x.x.D.y.y.y.E.E.E.E.E.E.E.E.E.E.E.E.E.E.E.E.E.E.F.` ",
"G.H.I.I.I.I.I.I.J.J.J.J.J.J.J.J.J.J.J.J.K.K.K.K.K.K.K.K.K.L.M.J 0 N.O.J.J.J.J.J.J.K.K.K.K.K.K.K.K.K.K.K.K.K.K.K.K.K.K.K.K.K.P.Q.",
": h 1.1.1.1.1.1.1.1.1.1.1.1.1.1.1.1.1.1.1.1.}.1.}.}.}.}.1.R.S.9 0 T.{.}.}.}.}.}.}.}.}.}.}.}.}.}.}.}.g g g g g g g g g g g g :.8 ",
": h 1.1.1.1.1.1.1.1.1.1.1.1.1.1.1.1.1.}.1.1.1.1.1.}.}.1.}.R.S.9 0 T.{.}.}.}.}.}.}.}.}.}.}.}.}.}.}.}.}.}.}.}.g }.g }.g g g g :.8 ",
": h 1.1.1.1.1.1.1.1.1.1.1.1.1.1.1.1.1.1.1.1.1.1.}.1.1.1.1.R.S.9 0 T.{.}.}.}.}.}.}.}.}.}.}.}.}.}.}.}.}.}.}.}.}.}.}.g }.g g g :.8 ",
": h 1.1.1.1.1.1.1.1.1.1.1.1.1.1.1.1.1.1.1.1.1.1.1.1.1.1.1.R.S.9 0 T.{.}.}.}.}.}.}.1.}.}.}.}.}.}.}.}.}.}.}.}.}.}.}.}.}.}.}.}.:.8 ",
": h 1.1.1.1.1.1.1.1.1.1.1.1.1.1.1.1.1.1.1.1.1.1.1.1.1.1.1.R.S.9 0 T.{.}.}.}.}.1.}.1.}.}.}.}.}.}.}.}.}.}.}.}.}.}.}.}.}.}.}.}.:.8 ",
": h 1.1.1.1.1.1.1.1.1.1.1.1.1.1.1.1.1.1.1.1.1.1.1.1.1.1.1.R.S.9 0 T.{.1.1.1.1.1.1.1.1.}.1.}.}.}.}.}.}.}.}.}.}.}.}.}.}.}.}.}.:.8 ",
": h 1.1.1.1.1.1.1.1.1.1.1.1.1.1.1.1.1.1.1.1.1.1.1.1.1.1.1.R.S.9 0 T.{.}.1.1.1.1.1.1.}.1.}.1.}.}.}.}.}.}.}.}.}.}.}.}.}.}.}.}.:.8 ",
": h 1.1.1.1.1.1.1.1.1.1.1.1.1.1.1.1.1.1.1.1.1.1.1.1.1.1.1.R.S.9 0 T.{.1.1.1.1.1.1.1.1.}.1.1.1.1.}.1.}.}.}.}.}.}.}.}.}.}.}.}.:.8 ",
": h 1.1.1.1.1.1.1.1.1.1.1.1.1.1.1.1.1.1.1.1.1.1.1.1.1.1.1.R.S.9 0 T.{.1.1.1.1.1.1.1.1.1.1.1.1.1.1.}.1.1.1.}.}.}.}.1.}.1.}.}.:.8 ",
": h 1.1.1.1.1.1.1.1.1.1.1.1.1.1.1.1.1.1.1.1.1.1.1.1.1.1.1.R.S.9 0 T.{.1.1.1.1.1.1.1.1.1.1.1.1.1.1.1.1.1.1.1.}.1.1.}.}.}.}.}.:.8 ",
": h 1.1.1.1.1.1.1.1.1.1.1.1.1.1.1.1.1.1.1.1.1.1.1.1.1.1.1.R.S.9 0 T.{.1.1.1.1.1.1.1.1.1.1.1.1.1.1.1.1.1.1.1.1.1.1.1.}.1.}.1.:.8 ",
": h 1.1.1.1.1.1.1.1.1.1.1.1.1.1.1.1.1.1.1.1.1.1.1.1.1.1.1.R.S.9 0 T.3.1.1.1.1.1.1.1.1.1.1.1.1.1.1.1.1.1.1.1.1.1.1.1.1.}.1.}.:.8 ",
": h 1.1.1.1.1.1.1.1.1.1.1.1.1.1.1.1.1.1.1.1.1.1.1.1.1.1.1.R.S.9 0 T.{.1.1.1.1.1.1.1.1.1.1.1.1.1.1.1.1.1.1.1.1.1.1.1.1.1.1.1.:.8 ",
": h 1.1.1.1.1.1.1.1.1.1.1.1.1.1.1.1.1.1.1.1.1.1.1.1.1.1.1.R.S.9 0 T.{.1.1.1.1.1.1.1.1.1.1.1.1.1.1.1.1.1.1.1.1.1.1.1.1.1.1.1.U.8 ",
": h 1.1.1.1.1.1.1.1.1.1.1.1.1.1.1.1.1.1.1.1.1.1.1.1.1.1.1.R.S.9 0 T.{.1.1.1.1.1.1.1.1.1.1.1.1.1.1.1.1.1.1.1.1.1.1.1.1.1.1.1.V.8 ",
": h 1.1.1.1.1.1.1.1.1.1.1.1.1.1.1.1.1.1.1.1.1.1.1.1.1.1.1.R.S.W.=.T.{.1.1.1.1.1.1.1.1.1.1.1.1.1.1.1.1.1.1.1.1.1.1.1.1.1.1.1.X.8 ",
"Y.Z.`.`.`.`.`.`.`.`.`.`.`.`.`.`.`.`.`.`.`.`.`.`.`.`.`.`.`. +.+++@+#+j `.`.`.`.`.`.`.`.`.`.`.`.`.`.`.`.`.`.`.`.`.`.`.`.`.`.`.} $+",
"%+&+*+*+*+*+*+*+*+*+*+*+*+*+*+*+*+*+*+*+*+*+*+*+*+*+*+*+*+=+-+$ $ ;+>+*+*+*+*+*+*+*+*+*+*+*+*+*+*+*+*+*+*+*+*+*+*+*+*+*+*+*+,+'+"};
